<svg xmlns="http://www.w3.org/2000/svg" width="32.143" height="25" viewBox="0 0 32.143 25">
  <path id="Icon_awesome-cc-mastercard" data-name="Icon awesome-cc-mastercard" d="M26.948,23.375a.626.626,0,1,1-.625-.653A.624.624,0,0,1,26.948,23.375ZM9.6,22.722a.655.655,0,1,0,.608.653A.617.617,0,0,0,9.6,22.722Zm6.557-.017a.517.517,0,0,0-.53.485H16.7A.513.513,0,0,0,16.161,22.705Zm6.016.017a.654.654,0,1,0,.625.653A.617.617,0,0,0,22.176,22.722Zm5.91,1.456c0,.017.017.028.017.061,0,.017-.017.028-.017.061a.2.2,0,0,0-.028.045.072.072,0,0,1-.061.028c-.017.017-.028.017-.061.017a.111.111,0,0,1-.061-.017c-.017,0-.028-.017-.045-.028s-.028-.028-.028-.045a.1.1,0,0,1-.017-.061c0-.028,0-.045.017-.061a.1.1,0,0,1,.028-.061.2.2,0,0,1,.045-.028.1.1,0,0,1,.061-.017c.028,0,.045,0,.061.017s.045.017.061.028S28.069,24.151,28.086,24.179Zm-.123.078c.028,0,.028-.017.045-.017a.068.068,0,0,0,0-.089c-.017,0-.028-.017-.061-.017h-.089v.2H27.9v-.078h.017l.061.078h.045l-.061-.073ZM32.143,5V24.642a2.679,2.679,0,0,1-2.679,2.679H2.679A2.679,2.679,0,0,1,0,24.642V5A2.679,2.679,0,0,1,2.679,2.32H29.464A2.679,2.679,0,0,1,32.143,5ZM3.571,12.789a7.725,7.725,0,0,0,12,6.44,8.322,8.322,0,0,1,0-12.863,7.725,7.725,0,0,0-12,6.423Zm12.5,6.071a7.726,7.726,0,0,0,0-12.137A7.726,7.726,0,0,0,16.071,18.86ZM8.131,23.118a.782.782,0,0,0-.82-.82.8.8,0,0,0-.714.363.74.74,0,0,0-.681-.363.709.709,0,0,0-.592.3v-.246H4.866V24.4h.458c0-1.055-.14-1.685.5-1.685.569,0,.458.569.458,1.685h.441c0-1.021-.14-1.685.5-1.685.569,0,.458.558.458,1.685h.458V23.118Zm2.506-.765H10.2V22.6a.8.8,0,0,0-.653-.3,1.079,1.079,0,0,0,0,2.154.774.774,0,0,0,.653-.3v.257h.441Zm2.26,1.429c0-.837-1.278-.458-1.278-.848,0-.318.664-.268,1.032-.061l.184-.363c-.525-.34-1.685-.335-1.685.458s1.278.463,1.278.837c0,.352-.753.324-1.155.045l-.2.352C11.7,24.625,12.9,24.536,12.9,23.782Zm1.975.519-.123-.379c-.212.117-.681.246-.681-.229v-.926H14.8v-.413h-.731v-.625H13.61v.625h-.424v.407h.424v.932c0,.982.965.8,1.261.608Zm.742-.748h1.535c0-.9-.413-1.261-.971-1.261a1,1,0,0,0-1.016,1.077,1.113,1.113,0,0,0,1.886.792l-.212-.335c-.435.357-1.094.324-1.222-.273Zm3.3-1.2a.655.655,0,0,0-.848.246v-.246h-.458V24.4h.458V23.247a.466.466,0,0,1,.714-.469l.134-.424Zm.592,1.021c0-.636.647-.843,1.155-.469l.212-.363a1.1,1.1,0,1,0,0,1.674l-.212-.363C20.145,24.218,19.5,24,19.5,23.375Zm3.722-1.021h-.458V22.6a1.015,1.015,0,1,0,0,1.551v.257h.458V22.354Zm1.881,0a.671.671,0,0,0-.848.246v-.246h-.441V24.4h.441V23.247a.468.468,0,0,1,.714-.469l.134-.424Zm2.249-.831h-.441V22.6a1.015,1.015,0,1,0,0,1.551v.257h.441Zm.424-4.191v.257h.045v-.257h.106v-.045h-.257v.045h.106Zm.368,6.908a.17.17,0,0,0-.017-.089c-.017-.017-.028-.045-.045-.061s-.045-.028-.061-.045c-.028,0-.061-.017-.089-.017a.593.593,0,0,1-.078.017.292.292,0,0,0-.061.045.087.087,0,0,0-.045.061.17.17,0,0,0-.017.089.162.162,0,0,0,.017.078.087.087,0,0,0,.045.061.193.193,0,0,0,.061.045.152.152,0,0,0,.078.017.17.17,0,0,0,.089-.017c.017-.017.045-.028.061-.045s.028-.045.045-.061A.162.162,0,0,0,28.147,24.24Zm.179-6.959h-.078l-.089.2-.089-.2h-.078v.3h.045v-.229l.089.2h.061l.078-.2v.229h.061Zm.246-4.492a7.725,7.725,0,0,0-12-6.429,8.322,8.322,0,0,1,0,12.863,7.725,7.725,0,0,0,12-6.434Z" transform="translate(0 -2.32)" fill="#b0acc3"/>
</svg>
