<svg xmlns="http://www.w3.org/2000/svg" width="32.143" height="25" viewBox="0 0 32.143 25">
  <path id="Icon_awesome-cc-paypal" data-name="Icon awesome-cc-paypal" d="M10.4,14.873a1.2,1.2,0,0,1-1.228,1.2.806.806,0,0,1-.893-.837,1.21,1.21,0,0,1,1.211-1.228A.838.838,0,0,1,10.4,14.873Zm-5.9-2.706H4.23a.175.175,0,0,0-.179.151l-.24,1.49.458-.017c.614,0,1.088-.084,1.2-.792.128-.748-.346-.831-.977-.831Zm15.848,0h-.251a.164.164,0,0,0-.179.151l-.234,1.49.446-.017c.725,0,1.228-.167,1.228-1-.006-.592-.536-.619-1.01-.619Zm11.8-7.238V24.571a2.679,2.679,0,0,1-2.679,2.679H2.679A2.679,2.679,0,0,1,0,24.571V4.929A2.679,2.679,0,0,1,2.679,2.25H29.464A2.679,2.679,0,0,1,32.143,4.929ZM7.16,12.484c0-1.172-.9-1.562-1.936-1.562H2.991a.3.3,0,0,0-.29.262l-.915,5.7a.192.192,0,0,0,.179.223h1.06a.356.356,0,0,0,.307-.318L3.583,15.3c.056-.4.737-.262,1-.262A2.36,2.36,0,0,0,7.16,12.484Zm4.7.491H10.8c-.212,0-.223.307-.234.458a1.425,1.425,0,0,0-1.323-.558A2.49,2.49,0,0,0,6.83,15.4a1.666,1.666,0,0,0,1.769,1.8,2.173,2.173,0,0,0,1.479-.664,1.491,1.491,0,0,0-.056.346c0,.128.056.223.179.223h.96c.151,0,.279-.162.307-.318l.569-3.588A.19.19,0,0,0,11.858,12.975Zm2.26,5.463,3.555-5.167a.115.115,0,0,0,.028-.095.2.2,0,0,0-.179-.2H16.451a.316.316,0,0,0-.251.14L14.721,15.3,14.107,13.2a.339.339,0,0,0-.307-.223H12.757a.2.2,0,0,0-.179.2c0,.067,1.088,3.17,1.183,3.465a14.417,14.417,0,0,0-1.144,1.763.18.18,0,0,0,.179.179h1.071a.328.328,0,0,0,.251-.145Zm8.89-5.954c0-1.172-.9-1.562-1.936-1.562H18.856a.307.307,0,0,0-.307.262l-.9,5.692a.2.2,0,0,0,.179.223h1.144a.239.239,0,0,0,.223-.179l.251-1.618c.056-.4.737-.262,1-.262A2.357,2.357,0,0,0,23.008,12.484Zm4.7.491h-1.06c-.212,0-.223.307-.24.458a1.4,1.4,0,0,0-1.323-.558A2.49,2.49,0,0,0,22.673,15.4a1.666,1.666,0,0,0,1.769,1.8,2.11,2.11,0,0,0,1.479-.664,2.48,2.48,0,0,0-.056.346c0,.128.056.223.179.223h.965c.151,0,.279-.162.307-.318l.569-3.588a.19.19,0,0,0-.179-.218Zm2.651-1.858a.188.188,0,0,0-.179-.2H29.146a.185.185,0,0,0-.179.151l-.9,5.8-.017.028a.2.2,0,0,0,.2.2h.921a.346.346,0,0,0,.29-.318l.9-5.647v-.017Zm-5.022,2.891a1.207,1.207,0,0,0-1.211,1.228.818.818,0,0,0,.9.837,1.19,1.19,0,0,0,1.211-1.2.831.831,0,0,0-.9-.865Z" transform="translate(0 -2.25)" fill="#b0acc3"/>
</svg>
