<svg xmlns="http://www.w3.org/2000/svg" width="37.5" height="25" viewBox="0 0 37.5 25">
  <path id="Icon_metro-visa" data-name="Icon metro-visa" d="M34.716,24.319H32.47q.228-.6,1.074-2.913l.049-.146q.065-.163.163-.423t.146-.423l.2.9Zm-23.5-1.058-.944-4.8a1.079,1.079,0,0,0-1.221-.879H4.686l-.033.212q5.062,1.286,6.559,5.469Zm2.913-5.68L11.49,24.71l-.277-1.449A5.918,5.918,0,0,0,9.83,21.153,6.312,6.312,0,0,0,7.7,19.713l2.2,8.3h2.848l4.248-10.433H14.127ZM16.389,28.03h2.7l1.693-10.449h-2.7Zm12.5-10.189a6.6,6.6,0,0,0-2.425-.439,5.276,5.276,0,0,0-3.271.96,3.028,3.028,0,0,0-1.286,2.49q-.016,1.66,2.36,2.832a4.5,4.5,0,0,1,1.091.667.867.867,0,0,1,.309.635.814.814,0,0,1-.488.749,2.35,2.35,0,0,1-1.123.26,5.881,5.881,0,0,1-2.539-.537l-.358-.179-.374,2.344a7.211,7.211,0,0,0,3.011.553,5.374,5.374,0,0,0,3.394-.96,3.2,3.2,0,0,0,1.31-2.6q0-1.725-2.279-2.832a7.866,7.866,0,0,1-1.156-.684.783.783,0,0,1-.358-.618.76.76,0,0,1,.4-.627,2.05,2.05,0,0,1,1.147-.269,4.6,4.6,0,0,1,2.018.391l.244.13Zm6.917-.26H33.723a1.383,1.383,0,0,0-1.416.879l-4,9.57h2.832l.57-1.562h3.451q.081.358.326,1.562h2.507Zm4.264-5.208V33.206a2.112,2.112,0,0,1-2.083,2.083H4.654a2,2,0,0,1-1.465-.618,2,2,0,0,1-.618-1.465V12.372a2,2,0,0,1,.618-1.465,2,2,0,0,1,1.465-.618H37.987a2.112,2.112,0,0,1,2.083,2.083Z" transform="translate(-2.571 -10.289)" fill="#b0acc3"/>
</svg>
